<?xml version="1.0" encoding="UTF-8"?>
<svg id="Layer_2" data-name="Layer 2" xmlns="http://www.w3.org/2000/svg" viewBox="0 0 86.35 86.35">
  <defs>
    <style>
      .cls-1 {
        fill: #c5a06c;
      }

      .cls-2 {
        fill: #c29f68;
      }
    </style>
  </defs>
  <g id="Layer_1-2" data-name="Layer 1">
    <g>
      <path class="cls-1" d="M43.17,86.35C19.37,86.35,0,66.98,0,43.17S19.37,0,43.17,0s43.17,19.37,43.17,43.17-19.37,43.17-43.17,43.17ZM43.17,2.27C20.62,2.27,2.27,20.62,2.27,43.17s18.35,40.9,40.9,40.9,40.9-18.35,40.9-40.9S65.73,2.27,43.17,2.27Z"/>
      <rect class="cls-1" x="42.04" y="1.95" width="2.27" height="82.45" transform="translate(-17.88 43.17) rotate(-45)"/>
      <path class="cls-2" d="M71.56,33.14c-.14-.64-.57-1.11-1.33-1.45l-3.98-1.74c1.83-3.05,2.62-6.88,3.1-9.88.12-.74-.08-1.4-.56-1.86-.47-.45-1.11-.63-1.82-.52-3.19.52-6.85,1.3-9.88,3.1l-1.58-3.62-.56-1.08-.02-.03c-.41-.42-.96-.65-1.52-.62-.56.02-1.08.27-1.46.7l-1.58,1.83c-1.28,1.49-2.88,3.77-3.36,6.36-.33-.45-.77-.74-1.27-.81-.71-.11-1.35.12-1.82.66l-1.58,1.83c-.85.99-1.57,2.02-2.2,3.15-.55,1-.93,2.04-1.17,3.23-.3-.44-.75-.74-1.27-.83-.68-.11-1.35.13-1.81.65l-1.28,1.46c-2.08,2.38-3.26,4.54-3.69,6.77-.34-.47-.83-.78-1.38-.85-.68-.08-1.29.19-1.82.81l-.36.42c-.81.93-1.57,1.8-2.29,2.79-2,2.76-2.71,5.42-2.24,8.38.23,1.42.62,2.72,1.01,3.92.22.66.48,1.15.85,1.57l-7.54,7.55c-1.21,1.53-.95,3.68.58,4.89.62.5,1.4.75,2.16.75.86,0,1.71-.31,2.33-.92l7.38-7.36c.4.36.91.63,1.55.84,3.48,1.12,6.43,1.84,9.98.17,1.3-.61,2.51-1.41,3.72-2.46l1.89-1.65c.57-.5.84-1.18.72-1.88-.08-.49-.38-.94-.84-1.26,1.51-.29,2.9-.87,4.26-1.77,1.36-.9,2.67-1.97,4.13-3.37.45-.43.62-1.1.46-1.8-.1-.44-.38-.82-.79-1.1,3.05-.58,5.31-2.4,7.37-4.22l.79-.7c.58-.51.83-1.17.71-1.86-.09-.49-.38-.94-.81-1.26,1.26-.25,2.37-.67,3.47-1.3,1.12-.64,2.17-1.41,3.22-2.33l1.52-1.34c.55-.49.78-1.21.63-1.92ZM60.07,38.25c-1.23-.14-2.39-.41-3.55-.82l-4.08-1.46,2.76-2.76c1.9-1.65,4.33-2.51,6.82-2.43,2.35.3,4.57,1.34,6.72,2.34l.71.33c.06.03.15.11.19.16l-.48.47c-.85.83-1.81,1.6-3.03,2.45-2,1.39-3.98,1.95-6.05,1.72ZM53.64,32.05l-2.56,2.56-1.18-3.19c-.41-1.21-.83-2.5-1.06-3.88-.66-4.22,1.59-6.79,4.2-9.77l.07-.08c.11-.12.19-.21.32-.29,1.23,2.36,2.68,5.54,2.8,7.6.14,2.54-.78,5.05-2.58,7.05ZM37.53,48.15l-2.56,2.57-1.34-3.74c-.39-1.08-.66-2.13-.87-3.3-.74-4.26,1.78-7.1,4.21-9.85.12-.14.23-.25.36-.34.8,1.5,1.48,3.04,2.09,4.69.36.99.6,1.96.73,3.03.04,2.57-.89,5.04-2.62,6.94ZM45.67,40.02l-2.66,2.67-1.05-2.92c-.39-1.08-.82-2.38-1.09-3.78-.86-4.47,1.5-7.18,4.01-10.05.16-.19.31-.34.49-.5l.61,1.17c.84,1.63,2.12,4.83,2.19,6.55.1,2.46-.79,4.89-2.51,6.85ZM36.32,52.08l2.8-2.79c1.85-1.58,4.11-2.42,6.52-2.42h.08c1.35.14,2.54.44,3.65.93l4.02,1.77c.07.03.14.1.14.11,0,.04-.06.14-.12.19l-.11.1c-2.87,2.52-5.58,4.91-9.64,4.35-1.17-.16-2.32-.45-3.51-.87l-3.83-1.37ZM61.49,41.79l-1.89,1.63c-1.13.97-2.19,1.67-3.35,2.2-1.5.68-3.12.89-4.81.62-1.15-.2-2.25-.49-3.38-.89l-3.7-1.32,2.85-2.8c1.79-1.59,4.21-2.45,6.63-2.37,1.96.07,4.56,1.27,6.66,2.23.33.15.64.29.94.43.07.03.14.09.15.09,0,.04-.05.15-.09.18ZM31.6,61.34c-.74-.24-1.25-.71-1.46-1.31-.27-.79-.15-1.57.33-2.08,1.79-1.9,4.32-3,6.88-3,.21,0,.43,0,.64.02,2.04.15,4.96,1.52,7.1,2.52l.41.19c0,.06-.06.18-.1.21l-1.48,1.28c-2.3,2-4.94,3.76-8.63,3.13-1.22-.21-2.35-.54-3.69-.98ZM57.29,29.74c1.01-2.58,1.13-4.72.41-7.07.96-.63,2.05-1.16,3.43-1.64,1.82-.63,3.75-1.09,6.26-1.49.03.01.07.05.09.07-.44,2.81-1.25,6.83-3.13,9.71-2.32-.73-4.45-.6-7.07.41ZM18.69,66.13l7.49-7.5c.65.27,1.29.37,1.93.3-.07.72.03,1.32.29,1.9l-7.54,7.52c-.27.27-.65.41-1.06.39-.45-.03-.9-.25-1.17-.59-.5-.63-.48-1.48.05-2.02ZM25.89,55.89c-.51-1.24-.89-2.54-1.16-3.98-.4-2.1,0-4.23,1.15-6.13.82-1.36,1.84-2.54,2.89-3.74l.08-.09c.14-.16.26-.3.43-.41.85,1.63,2.67,5.35,2.79,7.63.14,2.67-.9,5.33-2.86,7.29-.49.49-1.15.67-1.88.53-.5-.1-1.17-.45-1.43-1.1Z"/>
    </g>
  </g>
</svg>